<svg data-v-423bf9ae="" xmlns="http://www.w3.org/2000/svg" viewBox="0 0 636 107" class="iconLeftSlogan"><!----><!----><!----><g data-v-423bf9ae="" id="e96988c6-a85b-48b1-af10-d55d3f16d024" fill="white" transform="matrix(4.8899757477580295,0,0,4.8899757477580295,103.47416239162897,-22.200489231446525)"><path d="M2.97 13.78L5.45 13.78L8.19 4.54L6.09 4.54L5.01 8.86C4.76 9.87 4.55 10.81 4.27 11.83L4.21 11.83C3.95 10.81 3.77 9.87 3.50 8.86L2.39 4.54L0.21 4.54ZM11.54 13.94C12.43 13.94 13.30 13.51 14 12.96L14.06 12.96L14.21 13.78L15.89 13.78L15.89 9.66C15.89 7.50 14.70 6.45 12.75 6.45C11.56 6.45 10.46 6.87 9.79 7.43L10.51 8.78C11.02 8.37 11.68 8.11 12.35 8.11C13.29 8.11 13.76 8.51 13.83 9.18C10.54 9.39 9.25 10.21 9.25 11.80C9.25 13.01 10.14 13.94 11.54 13.94ZM12.19 12.35C11.61 12.35 11.23 12.12 11.23 11.65C11.23 11.00 11.79 10.54 13.83 10.42L13.83 11.65C13.34 12.05 12.81 12.35 12.19 12.35ZM18.42 13.78L20.48 13.78L20.48 10.02C21.07 8.74 21.97 8.26 22.82 8.26C23.34 8.26 23.62 8.34 24.05 8.47L24.47 6.75C24.07 6.57 23.74 6.45 23.13 6.45C22.02 6.45 21 7.03 20.31 8.20L20.27 8.20L20.10 6.64L18.42 6.64ZM26.21 13.78L28.27 13.78L28.27 9.00C28.76 8.48 29.12 8.20 29.68 8.20C30.44 8.20 30.70 8.65 30.70 9.63L30.70 13.78L32.76 13.78L32.76 9.37C32.76 7.56 32.06 6.45 30.49 6.45C29.46 6.45 28.70 6.99 28.10 7.60L28.04 7.60L27.89 6.64L26.21 6.64ZM36.74 13.94C37.63 13.94 38.50 13.51 39.20 12.96L39.26 12.96L39.41 13.78L41.09 13.78L41.09 9.66C41.09 7.50 39.90 6.45 37.95 6.45C36.76 6.45 35.66 6.87 34.99 7.43L35.71 8.78C36.22 8.37 36.88 8.11 37.55 8.11C38.49 8.11 38.96 8.51 39.03 9.18C35.74 9.39 34.45 10.21 34.45 11.80C34.45 13.01 35.34 13.94 36.74 13.94ZM37.39 12.35C36.81 12.35 36.43 12.12 36.43 11.65C36.43 11.00 36.99 10.54 39.03 10.42L39.03 11.65C38.54 12.05 38.01 12.35 37.39 12.35ZM54.22 13.94C56.74 13.94 57.62 12.45 57.62 10.64L57.62 4.54L52.00 4.54L52.00 6.26L55.57 6.26L55.57 10.47C55.57 11.75 55.09 12.17 54.15 12.17C53.55 12.17 52.95 11.82 52.42 11.14L51.23 12.42C52.02 13.55 53.21 13.94 54.22 13.94ZM63 13.94C64.83 13.94 66.54 12.59 66.54 10.21C66.54 7.83 64.83 6.45 63 6.45C61.17 6.45 59.46 7.83 59.46 10.21C59.46 12.59 61.17 13.94 63 13.94ZM63 12.28C62.05 12.28 61.57 11.47 61.57 10.21C61.57 8.95 62.05 8.12 63 8.12C63.95 8.12 64.43 8.95 64.43 10.21C64.43 11.47 63.95 12.28 63 12.28ZM70.32 13.94C71.32 13.94 72.04 13.47 72.66 12.74L72.72 12.74L72.87 13.78L74.55 13.78L74.55 6.64L72.49 6.64L72.49 11.34C72.02 12.00 71.65 12.19 71.13 12.19C70.36 12.19 70.13 11.76 70.13 10.78L70.13 6.64L68.07 6.64L68.07 11.05C68.07 12.85 68.74 13.94 70.32 13.94ZM77.22 13.78L79.28 13.78L79.28 10.02C79.87 8.74 80.77 8.26 81.62 8.26C82.14 8.26 82.42 8.34 82.85 8.47L83.27 6.75C82.87 6.57 82.54 6.45 81.93 6.45C80.82 6.45 79.80 7.03 79.11 8.20L79.07 8.20L78.90 6.64L77.22 6.64ZM85.01 13.78L87.07 13.78L87.07 9.00C87.56 8.48 87.92 8.20 88.48 8.20C89.24 8.20 89.50 8.65 89.50 9.63L89.50 13.78L91.56 13.78L91.56 9.37C91.56 7.56 90.86 6.45 89.29 6.45C88.26 6.45 87.50 6.99 86.90 7.60L86.84 7.60L86.69 6.64L85.01 6.64ZM97.02 13.94C97.94 13.94 98.98 13.62 99.76 13.12L99.09 11.87C98.48 12.21 97.93 12.38 97.30 12.38C96.28 12.38 95.42 11.90 95.28 10.81L99.96 10.81C99.99 10.63 100.04 10.25 100.04 9.88C100.04 7.94 98.92 6.45 96.78 6.45C94.93 6.45 93.17 7.87 93.17 10.21C93.17 12.57 94.86 13.94 97.02 13.94ZM95.26 9.44C95.44 8.48 96.08 8.04 96.82 8.04C97.76 8.04 98.18 8.60 98.18 9.44ZM102.80 16.81C104.55 16.81 105.38 15.89 106.04 14.11L108.79 6.64L106.85 6.64L105.83 9.76C105.60 10.46 105.38 11.20 105.20 11.90L105.14 11.90C104.92 11.16 104.69 10.43 104.44 9.76L103.28 6.64L101.23 6.64L104.24 13.61L104.02 14.18C103.88 14.53 103.45 15.19 102.65 15.19C102.47 15.19 102.28 15.16 102.10 15.11L101.74 16.67C102.03 16.76 102.40 16.81 102.80 16.81Z"></path></g><!----><g data-v-423bf9ae="" id="33496843-f285-47ca-851f-dca27fbce408" transform="matrix(1.0876556396484376,0,0,1.0876556396484376,-11.187917694330103,-0.319440883782228)" stroke="none" fill="white"><path d="M59.162 64.188l9.707.002c-.664 7.885-6.056 14.441-13.332 16.812.414-4.086.652-8.415.652-13.245C56.189 56.251 54.868 46 52.906 41H67v-9h-9.115c4.927-3 8.253-8.291 8.253-14.399 0-9.15-7.446-16.635-16.599-16.635-9.151 0-16.598 7.503-16.598 16.653 0 6.109 3.326 11.381 8.253 14.381H32v9h14.173c-1.962 5-3.283 15.251-3.283 26.757 0 4.83.238 9.179.652 13.265C36.266 78.65 30.874 72 30.209 64h9.706L25.304 45.311l-14.61 18.83 9.872.026c.777 13.798 11.202 25.04 24.636 27.064 1.166 4.736 2.68 7.624 4.338 7.624 1.659 0 3.173-2.975 4.339-7.711A28.973 28.973 0 0078.512 64h9.873l-14.61-18.689-14.613 18.877zm-9.623-36.495c-5.607 0-10.169-4.562-10.169-10.169 0-5.606 4.562-10.168 10.169-10.168 5.608 0 10.17 4.562 10.17 10.168 0 5.608-4.562 10.169-10.17 10.169z"></path></g><!----><g data-v-423bf9ae="" id="ca46a89a-a56d-41a8-85cc-9e9dc8da153e" fill="white" transform="matrix(1.0298530230900134,0,0,1.0298530230900134,103.78016011383386,56.096857039317534)"><path d="M1.89 3.92L0.70 3.92L0.70 4.19C0.70 4.34 0.80 4.42 0.98 4.44L1.12 4.44C1.19 4.44 1.29 4.45 1.43 4.45C1.57 4.45 1.72 4.47 1.89 4.47L1.89 13.26C1.72 13.26 1.57 13.27 1.43 13.27C1.29 13.27 1.19 13.29 1.12 13.29L0.98 13.29C0.80 13.30 0.71 13.38 0.71 13.54L0.71 13.82L1.89 13.82L7.83 13.82L7.83 13.22L7.83 11.76L7.48 11.76C7.28 11.76 7.20 11.89 7.18 12.11C7.18 12.14 7.17 12.19 7.17 12.29C7.17 12.39 7.17 12.53 7.15 12.74C7.14 12.95 7.13 13.09 7.13 13.22L2.60 13.22L2.60 9.09L6.55 9.09L6.55 8.51L2.60 8.51L2.60 4.51L7.13 4.51C7.15 5.12 7.18 5.50 7.18 5.63C7.20 5.85 7.28 5.96 7.48 5.96L7.83 5.96L7.83 4.51L7.83 3.92ZM25.06 13.29L24.98 13.29C24.93 13.29 24.86 13.27 24.79 13.27C24.72 13.27 24.64 13.26 24.54 13.26L21.36 8.69L24.40 4.47C24.51 4.47 24.58 4.45 24.67 4.45C24.75 4.45 24.82 4.44 24.86 4.44L24.96 4.44C25.14 4.42 25.24 4.34 25.24 4.19L25.24 3.92L24.79 3.92L24.53 3.92L24.11 3.92L24.07 3.92L22.47 3.92L22.47 4.19C22.47 4.34 22.57 4.42 22.75 4.44L22.86 4.44C22.92 4.44 23.02 4.45 23.16 4.45C23.30 4.45 23.44 4.47 23.60 4.47L20.99 8.18C20.96 8.22 20.94 8.25 20.93 8.29C20.92 8.32 20.90 8.36 20.89 8.40L18.17 4.47C18.33 4.47 18.45 4.45 18.58 4.45C18.70 4.45 18.79 4.44 18.83 4.44L18.94 4.44C19.12 4.42 19.21 4.34 19.21 4.19L19.21 3.92L17.67 3.92L17.65 3.92L17.15 3.92L16.94 3.92L16.49 3.92L16.49 4.19C16.49 4.34 16.59 4.42 16.77 4.44L16.87 4.44C16.91 4.44 16.98 4.45 17.07 4.45C17.15 4.45 17.23 4.47 17.35 4.47L20.36 8.74L17.18 13.26C17.07 13.26 16.98 13.27 16.90 13.27C16.81 13.27 16.74 13.29 16.70 13.29L16.60 13.29C16.42 13.30 16.32 13.38 16.32 13.54L16.32 13.82L16.79 13.82L17.04 13.82L17.43 13.82L17.51 13.82L19.11 13.82L19.11 13.54C19.11 13.38 19.01 13.30 18.83 13.29L18.70 13.29C18.65 13.29 18.54 13.27 18.41 13.27C18.28 13.27 18.13 13.26 17.96 13.26L17.96 13.26L20.76 9.28C20.80 9.21 20.85 9.16 20.86 9.09L23.72 13.26C23.56 13.26 23.42 13.27 23.30 13.27C23.17 13.27 23.07 13.29 23.03 13.29L22.93 13.29C22.75 13.30 22.65 13.38 22.65 13.54L22.65 13.82L24.16 13.82L24.22 13.82L24.72 13.82L24.93 13.82L25.34 13.82L25.34 13.54C25.34 13.38 25.24 13.30 25.06 13.29ZM39.89 4.68C39.30 4.17 38.42 3.92 37.25 3.92L34.85 3.92L33.66 3.92L33.66 4.19C33.66 4.34 33.75 4.42 33.94 4.44L34.08 4.44C34.15 4.44 34.24 4.45 34.38 4.45C34.52 4.45 34.68 4.47 34.85 4.47L34.85 13.26C34.68 13.26 34.52 13.27 34.38 13.27C34.24 13.27 34.15 13.29 34.08 13.29L33.94 13.29C33.75 13.30 33.66 13.38 33.66 13.54L33.66 13.82L34.85 13.82L35.56 13.82L36.74 13.82L36.74 13.54C36.74 13.38 36.64 13.30 36.46 13.29L36.33 13.29C36.26 13.29 36.15 13.27 36.01 13.27C35.87 13.27 35.73 13.26 35.56 13.26L35.56 9.83L37.25 9.83C37.80 9.83 38.29 9.74 38.72 9.60C39.16 9.45 39.52 9.25 39.83 8.99C40.14 8.72 40.38 8.41 40.53 8.05C40.70 7.69 40.77 7.29 40.77 6.86C40.77 5.92 40.47 5.18 39.89 4.68ZM39.86 7.81C39.73 8.11 39.55 8.36 39.31 8.57C39.07 8.78 38.78 8.95 38.43 9.07C38.08 9.20 37.69 9.25 37.25 9.25L35.56 9.25L35.56 4.48L37.25 4.48C38.18 4.48 38.88 4.69 39.35 5.10C39.82 5.50 40.05 6.09 40.05 6.85C40.05 7.20 39.98 7.52 39.86 7.81ZM55.33 11.97C55.13 11.97 55.05 12.08 55.03 12.31C55.03 12.32 55.03 12.38 55.02 12.43C55.01 12.49 55.01 12.59 54.99 12.71C54.98 12.84 54.96 13.01 54.95 13.20L50.86 13.20L50.86 4.47C51.03 4.47 51.17 4.45 51.31 4.45C51.45 4.45 51.56 4.44 51.63 4.44L51.76 4.44C51.94 4.42 52.04 4.34 52.04 4.19L52.04 3.92L50.86 3.92L50.15 3.92L48.96 3.92L48.96 4.19C48.96 4.34 49.06 4.42 49.24 4.44L49.38 4.44C49.45 4.44 49.55 4.45 49.69 4.45C49.83 4.45 49.98 4.47 50.15 4.47L50.15 13.26C49.98 13.26 49.83 13.27 49.69 13.27C49.55 13.27 49.45 13.29 49.38 13.29L49.24 13.29C49.06 13.30 48.96 13.38 48.96 13.54L48.96 13.82L50.15 13.82L55.43 13.82L55.55 13.82L55.68 13.82L55.68 13.55L55.68 12.99L55.68 11.97L55.40 11.97ZM72.81 8.86C72.81 8.11 72.69 7.41 72.46 6.79C72.24 6.17 71.92 5.64 71.50 5.19C71.08 4.75 70.59 4.40 70.01 4.16C69.44 3.92 68.78 3.79 68.08 3.79C67.38 3.79 66.75 3.92 66.18 4.16C65.60 4.40 65.10 4.75 64.68 5.19C64.26 5.64 63.94 6.17 63.71 6.79C63.49 7.41 63.36 8.11 63.36 8.86C63.36 9.63 63.49 10.33 63.71 10.95C63.94 11.56 64.26 12.10 64.68 12.54C65.10 12.99 65.60 13.33 66.18 13.57C66.75 13.80 67.38 13.93 68.08 13.93C68.78 13.93 69.44 13.80 70.01 13.57C70.59 13.33 71.08 12.99 71.50 12.54C71.92 12.10 72.24 11.56 72.46 10.95C72.69 10.33 72.81 9.63 72.81 8.86ZM72.06 8.86C72.06 9.56 71.97 10.18 71.78 10.72C71.58 11.27 71.32 11.75 70.97 12.12C70.62 12.50 70.20 12.81 69.71 13.01C69.22 13.20 68.68 13.30 68.08 13.30C67.49 13.30 66.96 13.20 66.47 13.01C65.98 12.81 65.56 12.50 65.21 12.12C64.86 11.75 64.58 11.27 64.39 10.72C64.19 10.18 64.11 9.56 64.11 8.86C64.11 8.18 64.19 7.55 64.39 7.00C64.58 6.45 64.86 5.98 65.21 5.60C65.56 5.22 65.98 4.91 66.47 4.72C66.96 4.52 67.49 4.41 68.08 4.41C68.68 4.41 69.22 4.52 69.71 4.72C70.20 4.91 70.62 5.22 70.97 5.60C71.32 5.98 71.58 6.45 71.78 7.00C71.97 7.55 72.06 8.18 72.06 8.86ZM89.08 13.29L88.98 13.29L88.80 13.29C88.72 13.29 88.63 13.27 88.55 13.27L85.58 9.53C85.50 9.42 85.39 9.32 85.27 9.25C85.71 9.21 86.10 9.11 86.45 8.96C86.80 8.81 87.08 8.61 87.33 8.37C87.57 8.13 87.77 7.85 87.89 7.55C88.02 7.24 88.09 6.89 88.09 6.51C88.09 5.66 87.81 5.03 87.25 4.58C86.69 4.14 85.83 3.92 84.69 3.92L82.28 3.92L81.10 3.92L81.10 4.19C81.10 4.34 81.19 4.42 81.37 4.44L81.51 4.44C81.58 4.44 81.68 4.45 81.82 4.45C81.96 4.45 82.11 4.47 82.28 4.47L82.28 13.26C82.11 13.26 81.96 13.27 81.82 13.27C81.68 13.27 81.58 13.29 81.51 13.29L81.37 13.29C81.19 13.30 81.09 13.38 81.09 13.54L81.09 13.82L82.28 13.82L82.99 13.82L84.17 13.82L84.17 13.54C84.17 13.38 84.07 13.30 83.89 13.29L83.75 13.29C83.68 13.29 83.58 13.27 83.44 13.27C83.30 13.27 83.16 13.26 82.99 13.26L82.99 9.34L84.17 9.34C84.36 9.34 84.50 9.35 84.59 9.39C84.67 9.44 84.76 9.52 84.84 9.62L88.02 13.64C88.07 13.71 88.12 13.75 88.17 13.78C88.23 13.80 88.30 13.82 88.37 13.82L88.44 13.82L88.98 13.82L89.35 13.82L89.35 13.54C89.35 13.38 89.26 13.30 89.08 13.29ZM84.59 8.81L82.99 8.81L82.99 4.48L84.69 4.48C85.57 4.48 86.24 4.66 86.70 5.00C87.16 5.33 87.39 5.87 87.39 6.57C87.39 6.92 87.33 7.21 87.21 7.49C87.08 7.77 86.88 7.99 86.65 8.19C86.41 8.39 86.11 8.55 85.76 8.65C85.41 8.75 85.02 8.81 84.59 8.81ZM98.74 3.92L97.55 3.92L97.55 4.19C97.55 4.34 97.65 4.42 97.83 4.44L97.97 4.44C98.04 4.44 98.14 4.45 98.28 4.45C98.42 4.45 98.57 4.47 98.74 4.47L98.74 13.26C98.57 13.26 98.42 13.27 98.28 13.27C98.14 13.27 98.04 13.29 97.97 13.29L97.83 13.29C97.65 13.30 97.57 13.38 97.57 13.54L97.57 13.82L98.74 13.82L104.68 13.82L104.68 13.22L104.68 11.76L104.33 11.76C104.13 11.76 104.05 11.89 104.03 12.11C104.03 12.14 104.02 12.19 104.02 12.29C104.02 12.39 104.02 12.53 104.01 12.74C103.99 12.95 103.98 13.09 103.98 13.22L99.46 13.22L99.46 9.09L103.40 9.09L103.40 8.51L99.46 8.51L99.46 4.51L103.98 4.51C104.01 5.12 104.03 5.50 104.03 5.63C104.05 5.85 104.13 5.96 104.33 5.96L104.68 5.96L104.68 4.51L104.68 3.92ZM137.44 3.92L136.89 3.92L136.85 3.92L135.38 3.92L135.38 4.19C135.38 4.34 135.46 4.42 135.65 4.44L135.77 4.44C135.83 4.44 135.93 4.45 136.07 4.45C136.21 4.45 136.35 4.47 136.51 4.47L134.13 12.24C134.11 12.33 134.08 12.43 134.06 12.54C134.05 12.66 134.02 12.75 133.99 12.87C133.97 12.75 133.95 12.63 133.92 12.53L133.84 12.24L131.04 4.10C131.01 4.05 130.98 3.99 130.94 3.96C130.90 3.93 130.84 3.92 130.77 3.92L130.58 3.92C130.51 3.92 130.45 3.93 130.41 3.98C130.37 4.02 130.33 4.05 130.31 4.10L127.51 12.25C127.48 12.35 127.46 12.43 127.43 12.54C127.40 12.64 127.39 12.75 127.36 12.88C127.34 12.78 127.32 12.67 127.29 12.54C127.27 12.43 127.25 12.33 127.22 12.24L124.84 4.47C125.01 4.47 125.15 4.45 125.27 4.45C125.40 4.45 125.48 4.44 125.54 4.44L125.65 4.44C125.83 4.42 125.93 4.34 125.93 4.19L125.93 3.92L124.46 3.92L123.87 3.92L123.27 3.92L123.27 4.19C123.27 4.34 123.37 4.42 123.55 4.44L123.65 4.44C123.69 4.44 123.73 4.45 123.80 4.45C123.87 4.45 123.96 4.47 124.04 4.47L126.99 13.82L127.62 13.82L130.56 5.22C130.61 5.11 130.63 5.00 130.66 4.87C130.69 5.00 130.72 5.11 130.76 5.22L133.69 13.82L134.33 13.82L137.27 4.47C137.35 4.47 137.42 4.45 137.49 4.45C137.56 4.45 137.62 4.44 137.66 4.44L137.76 4.44C137.94 4.42 138.03 4.34 138.03 4.19L138.03 3.92ZM148.89 4.44C149.07 4.42 149.16 4.34 149.16 4.19L149.16 3.91L147.98 3.91L147.27 3.91L146.08 3.91L146.08 4.19C146.08 4.34 146.17 4.42 146.36 4.44L146.50 4.44C146.57 4.44 146.66 4.45 146.80 4.45C146.94 4.45 147.10 4.47 147.27 4.47L147.27 13.26C147.10 13.26 146.94 13.27 146.80 13.27C146.66 13.27 146.57 13.29 146.50 13.29L146.36 13.29C146.17 13.30 146.08 13.38 146.08 13.54L146.08 13.82L147.27 13.82L147.98 13.82L149.16 13.82L149.16 13.54C149.16 13.38 149.07 13.30 148.89 13.29L148.75 13.29C148.68 13.29 148.58 13.27 148.44 13.27C148.30 13.27 148.15 13.26 147.98 13.26L147.98 4.47C148.15 4.47 148.30 4.45 148.44 4.45C148.58 4.45 148.68 4.44 148.75 4.44ZM165.02 3.92L164.82 3.92L157.53 3.92L157.32 3.92L157.22 3.92L157.22 5.96L157.57 5.96C157.77 5.96 157.85 5.85 157.86 5.63C157.86 5.53 157.89 5.17 157.92 4.52L160.82 4.52L160.82 13.26C160.65 13.26 160.51 13.27 160.37 13.27C160.23 13.27 160.12 13.29 160.05 13.29L159.92 13.29C159.74 13.30 159.64 13.38 159.64 13.54L159.64 13.82L160.82 13.82L161.53 13.82L162.72 13.82L162.72 13.54C162.72 13.38 162.62 13.30 162.44 13.29L162.30 13.29C162.23 13.29 162.13 13.27 161.99 13.27C161.85 13.27 161.70 13.26 161.53 13.26L161.53 4.52L164.42 4.52C164.46 5.24 164.47 5.60 164.47 5.63C164.49 5.85 164.58 5.96 164.78 5.96L165.12 5.96L165.12 3.92ZM182.95 4.44C183.13 4.42 183.23 4.34 183.23 4.19L183.23 3.92L182.06 3.92L181.33 3.92L180.15 3.92L180.15 4.19C180.15 4.34 180.25 4.42 180.43 4.44L180.56 4.44C180.63 4.44 180.74 4.45 180.88 4.45C181.02 4.45 181.16 4.47 181.33 4.47L181.33 8.53L175.13 8.53L175.13 4.47C175.29 4.47 175.45 4.45 175.59 4.45C175.73 4.45 175.83 4.44 175.90 4.44L176.04 4.44C176.22 4.42 176.30 4.34 176.30 4.19L176.30 3.92L175.13 3.92L174.41 3.92L173.22 3.92L173.22 4.19C173.22 4.34 173.32 4.42 173.50 4.44L173.64 4.44C173.71 4.44 173.81 4.45 173.95 4.45C174.09 4.45 174.24 4.47 174.41 4.47L174.41 13.26C174.24 13.26 174.09 13.27 173.95 13.27C173.81 13.27 173.71 13.29 173.64 13.29L173.50 13.29C173.32 13.30 173.22 13.38 173.22 13.54L173.22 13.82L174.41 13.82L175.13 13.82L176.30 13.82L176.30 13.54C176.30 13.38 176.22 13.30 176.04 13.29L175.90 13.29C175.83 13.29 175.73 13.27 175.59 13.27C175.45 13.27 175.29 13.26 175.13 13.26L175.13 9.07L181.33 9.07L181.33 13.26C181.16 13.26 181.02 13.27 180.88 13.27C180.74 13.27 180.63 13.29 180.56 13.29L180.43 13.29C180.25 13.30 180.15 13.38 180.15 13.54L180.15 13.82L181.33 13.82L182.06 13.82L183.23 13.82L183.23 13.54C183.23 13.38 183.13 13.30 182.95 13.29L182.83 13.29C182.76 13.29 182.64 13.27 182.50 13.27C182.36 13.27 182.22 13.26 182.06 13.26L182.06 4.47C182.22 4.47 182.36 4.45 182.50 4.45C182.64 4.45 182.76 4.44 182.83 4.44ZM200.84 8.86C200.84 8.11 200.72 7.41 200.49 6.79C200.27 6.17 199.95 5.64 199.53 5.19C199.11 4.75 198.62 4.40 198.04 4.16C197.47 3.92 196.81 3.79 196.11 3.79C195.41 3.79 194.78 3.92 194.21 4.16C193.63 4.40 193.13 4.75 192.71 5.19C192.29 5.64 191.97 6.17 191.74 6.79C191.52 7.41 191.39 8.11 191.39 8.86C191.39 9.63 191.52 10.33 191.74 10.95C191.97 11.56 192.29 12.10 192.71 12.54C193.13 12.99 193.63 13.33 194.21 13.57C194.78 13.80 195.41 13.93 196.11 13.93C196.81 13.93 197.47 13.80 198.04 13.57C198.62 13.33 199.11 12.99 199.53 12.54C199.95 12.10 200.27 11.56 200.49 10.95C200.72 10.33 200.84 9.63 200.84 8.86ZM200.09 8.86C200.09 9.56 200.00 10.18 199.81 10.72C199.61 11.27 199.35 11.75 199.00 12.12C198.65 12.50 198.23 12.81 197.74 13.01C197.25 13.20 196.71 13.30 196.11 13.30C195.52 13.30 194.99 13.20 194.50 13.01C194.01 12.81 193.59 12.50 193.24 12.12C192.89 11.75 192.61 11.27 192.42 10.72C192.22 10.18 192.14 9.56 192.14 8.86C192.14 8.18 192.22 7.55 192.42 7.00C192.61 6.45 192.89 5.98 193.24 5.60C193.59 5.22 194.01 4.91 194.50 4.72C194.99 4.52 195.52 4.41 196.11 4.41C196.71 4.41 197.25 4.52 197.74 4.72C198.23 4.91 198.65 5.22 199.00 5.60C199.35 5.98 199.61 6.45 199.81 7.00C200.00 7.55 200.09 8.18 200.09 8.86ZM217.08 3.92L216.37 3.92L215.01 3.92L215.01 4.19C215.01 4.34 215.11 4.42 215.29 4.44L215.46 4.44C215.56 4.44 215.70 4.45 215.87 4.45C216.03 4.45 216.20 4.47 216.37 4.47L216.37 10.04C216.37 10.50 216.30 10.92 216.16 11.33C216.02 11.73 215.82 12.08 215.56 12.38C215.29 12.67 214.98 12.89 214.61 13.06C214.23 13.23 213.81 13.31 213.33 13.31C212.86 13.31 212.42 13.23 212.04 13.06C211.67 12.89 211.34 12.66 211.09 12.36C210.83 12.07 210.64 11.72 210.50 11.33C210.36 10.93 210.29 10.50 210.29 10.04L210.29 4.47C210.46 4.47 210.63 4.45 210.80 4.45C210.97 4.45 211.11 4.44 211.20 4.44L211.37 4.44C211.55 4.42 211.65 4.34 211.65 4.19L211.65 3.92L210.29 3.92L209.58 3.92L208.40 3.92L208.40 4.19C208.40 4.34 208.49 4.42 208.67 4.44L208.81 4.44C208.88 4.44 208.98 4.45 209.12 4.45C209.26 4.45 209.41 4.47 209.58 4.47L209.58 10.04C209.58 10.58 209.66 11.09 209.83 11.56C210.00 12.04 210.25 12.46 210.57 12.81C210.90 13.16 211.30 13.44 211.76 13.64C212.23 13.83 212.76 13.93 213.33 13.93C213.91 13.93 214.42 13.83 214.89 13.64C215.35 13.44 215.75 13.16 216.08 12.81C216.40 12.46 216.65 12.04 216.82 11.56C216.99 11.09 217.08 10.58 217.08 10.04L217.08 4.47C217.25 4.47 217.39 4.45 217.53 4.45C217.67 4.45 217.78 4.44 217.85 4.44L217.98 4.44C218.16 4.42 218.26 4.34 218.26 4.19L218.26 3.92ZM233.80 3.92L233.60 3.92L226.31 3.92L226.10 3.92L226.00 3.92L226.00 5.96L226.35 5.96C226.55 5.96 226.63 5.85 226.65 5.63C226.65 5.53 226.67 5.17 226.70 4.52L229.60 4.52L229.60 13.26C229.43 13.26 229.29 13.27 229.15 13.27C229.01 13.27 228.90 13.29 228.83 13.29L228.70 13.29C228.52 13.30 228.42 13.38 228.42 13.54L228.42 13.82L229.60 13.82L230.31 13.82L231.50 13.82L231.50 13.54C231.50 13.38 231.41 13.30 231.22 13.29L231.08 13.29C231.01 13.29 230.92 13.27 230.78 13.27C230.64 13.27 230.48 13.26 230.31 13.26L230.31 4.52L233.20 4.52C233.24 5.24 233.25 5.60 233.25 5.63C233.27 5.85 233.37 5.96 233.56 5.96L233.90 5.96L233.90 3.92ZM262.11 4.44C262.29 4.42 262.39 4.34 262.39 4.19L262.39 3.92L261.21 3.92L260.48 3.92L259.31 3.92L259.31 4.19C259.31 4.34 259.41 4.42 259.59 4.44L259.71 4.44C259.78 4.44 259.90 4.45 260.04 4.45C260.18 4.45 260.32 4.47 260.48 4.47L260.48 8.53L254.28 8.53L254.28 4.47C254.45 4.47 254.60 4.45 254.74 4.45C254.88 4.45 254.98 4.44 255.05 4.44L255.19 4.44C255.37 4.42 255.46 4.34 255.46 4.19L255.46 3.92L254.28 3.92L253.57 3.92L252.38 3.92L252.38 4.19C252.38 4.34 252.48 4.42 252.66 4.44L252.80 4.44C252.87 4.44 252.97 4.45 253.11 4.45C253.25 4.45 253.40 4.47 253.57 4.47L253.57 13.26C253.40 13.26 253.25 13.27 253.11 13.27C252.97 13.27 252.87 13.29 252.80 13.29L252.66 13.29C252.48 13.30 252.38 13.38 252.38 13.54L252.38 13.82L253.57 13.82L254.28 13.82L255.46 13.82L255.46 13.54C255.46 13.38 255.37 13.30 255.19 13.29L255.05 13.29C254.98 13.29 254.88 13.27 254.74 13.27C254.60 13.27 254.45 13.26 254.28 13.26L254.28 9.07L260.48 9.07L260.48 13.26C260.32 13.26 260.18 13.27 260.04 13.27C259.90 13.27 259.78 13.29 259.71 13.29L259.59 13.29C259.41 13.30 259.31 13.38 259.31 13.54L259.31 13.82L260.48 13.82L261.21 13.82L262.39 13.82L262.39 13.54C262.39 13.38 262.29 13.30 262.11 13.29L261.98 13.29C261.91 13.29 261.80 13.27 261.66 13.27C261.52 13.27 261.38 13.26 261.21 13.26L261.21 4.47C261.38 4.47 261.52 4.45 261.66 4.45C261.80 4.45 261.91 4.44 261.98 4.44ZM271.92 3.92L270.73 3.92L270.73 4.19C270.73 4.34 270.83 4.42 271.01 4.44L271.15 4.44C271.22 4.44 271.32 4.45 271.46 4.45C271.60 4.45 271.75 4.47 271.92 4.47L271.92 13.26C271.75 13.26 271.60 13.27 271.46 13.27C271.32 13.27 271.22 13.29 271.15 13.29L271.01 13.29C270.83 13.30 270.75 13.38 270.75 13.54L270.75 13.82L271.92 13.82L277.86 13.82L277.86 13.22L277.86 11.76L277.51 11.76C277.31 11.76 277.23 11.89 277.21 12.11C277.21 12.14 277.20 12.19 277.20 12.29C277.20 12.39 277.20 12.53 277.19 12.74C277.17 12.95 277.16 13.09 277.16 13.22L272.64 13.22L272.64 9.09L276.58 9.09L276.58 8.51L272.64 8.51L272.64 4.51L277.16 4.51C277.19 5.12 277.21 5.50 277.21 5.63C277.23 5.85 277.31 5.96 277.51 5.96L277.86 5.96L277.86 4.51L277.86 3.92ZM292.17 9.91C292.03 9.65 291.83 9.39 291.59 9.21C291.35 9.03 291.10 8.88 290.81 8.75C290.51 8.62 290.19 8.51 289.88 8.41C289.58 8.32 289.27 8.20 288.97 8.11C288.68 7.99 288.41 7.87 288.18 7.71C287.94 7.56 287.76 7.38 287.62 7.15C287.48 6.93 287.39 6.65 287.39 6.31C287.39 6.06 287.45 5.82 287.55 5.59C287.64 5.35 287.78 5.15 287.97 4.97C288.15 4.79 288.37 4.65 288.65 4.55C288.93 4.45 289.24 4.40 289.60 4.40C290.28 4.40 290.89 4.51 291.45 4.75C291.49 5.54 291.52 5.99 291.52 6.06C291.54 6.29 291.62 6.41 291.82 6.41L292.15 6.41L292.15 4.38C291.27 4.00 290.43 3.81 289.60 3.81C289.14 3.81 288.74 3.88 288.37 4.02C288.01 4.16 287.71 4.34 287.48 4.58C287.24 4.82 287.04 5.08 286.92 5.39C286.79 5.70 286.73 6.02 286.73 6.36C286.73 6.78 286.80 7.14 286.94 7.42C287.08 7.70 287.28 7.92 287.52 8.12C287.76 8.32 288.01 8.46 288.30 8.58C288.60 8.71 288.92 8.82 289.23 8.92C289.53 9.02 289.83 9.11 290.14 9.21C290.43 9.31 290.70 9.45 290.93 9.60C291.17 9.76 291.35 9.94 291.49 10.16C291.63 10.39 291.70 10.68 291.70 11.03C291.70 11.35 291.65 11.66 291.54 11.94C291.42 12.22 291.27 12.46 291.06 12.67C290.85 12.88 290.58 13.05 290.28 13.16C289.97 13.29 289.62 13.33 289.23 13.33C288.44 13.33 287.78 13.20 287.25 12.95C287.24 12.75 287.24 12.54 287.22 12.32C287.21 12.10 287.21 11.91 287.20 11.76C287.18 11.61 287.18 11.52 287.18 11.51C287.17 11.28 287.07 11.17 286.87 11.17L286.54 11.17L286.54 13.02L286.54 13.20L286.54 13.38C287.39 13.75 288.27 13.93 289.20 13.93C289.70 13.93 290.15 13.85 290.54 13.69C290.93 13.54 291.27 13.31 291.54 13.05C291.80 12.78 292.03 12.46 292.17 12.10C292.31 11.73 292.38 11.34 292.38 10.92C292.38 10.51 292.31 10.18 292.17 9.91ZM303.45 4.44C303.63 4.42 303.72 4.34 303.72 4.19L303.72 3.91L302.54 3.91L301.83 3.91L300.64 3.91L300.64 4.19C300.64 4.34 300.73 4.42 300.92 4.44L301.06 4.44C301.13 4.44 301.22 4.45 301.36 4.45C301.50 4.45 301.66 4.47 301.83 4.47L301.83 13.26C301.66 13.26 301.50 13.27 301.36 13.27C301.22 13.27 301.13 13.29 301.06 13.29L300.92 13.29C300.73 13.30 300.64 13.38 300.64 13.54L300.64 13.82L301.83 13.82L302.54 13.82L303.72 13.82L303.72 13.54C303.72 13.38 303.63 13.30 303.45 13.29L303.31 13.29C303.24 13.29 303.14 13.27 303.00 13.27C302.86 13.27 302.71 13.26 302.54 13.26L302.54 4.47C302.71 4.47 302.86 4.45 303.00 4.45C303.14 4.45 303.24 4.44 303.31 4.44ZM319.58 3.92L319.38 3.92L312.09 3.92L311.88 3.92L311.78 3.92L311.78 5.96L312.13 5.96C312.33 5.96 312.41 5.85 312.42 5.63C312.42 5.53 312.45 5.17 312.48 4.52L315.38 4.52L315.38 13.26C315.21 13.26 315.07 13.27 314.93 13.27C314.79 13.27 314.68 13.29 314.61 13.29L314.48 13.29C314.30 13.30 314.20 13.38 314.20 13.54L314.20 13.82L315.38 13.82L316.09 13.82L317.28 13.82L317.28 13.54C317.28 13.38 317.18 13.30 317.00 13.29L316.86 13.29C316.79 13.29 316.69 13.27 316.55 13.27C316.41 13.27 316.26 13.26 316.09 13.26L316.09 4.52L318.98 4.52C319.02 5.24 319.03 5.60 319.03 5.63C319.05 5.85 319.14 5.96 319.34 5.96L319.68 5.96L319.68 3.92ZM336.27 13.22L335.80 13.17L332.02 3.91L331.31 3.91L327.52 13.17L327.07 13.22C326.89 13.23 326.80 13.33 326.80 13.50L326.80 13.82L327.25 13.82L327.54 13.82L327.80 13.82L327.89 13.82L329.21 13.82L329.21 13.50C329.21 13.31 329.10 13.23 328.89 13.22C328.87 13.22 328.85 13.20 328.80 13.20C328.76 13.20 328.71 13.19 328.61 13.19C328.51 13.19 328.38 13.19 328.24 13.17L329.22 10.75L329.29 10.57L334.03 10.57L334.10 10.75L335.08 13.17C334.94 13.19 334.82 13.19 334.73 13.19C334.63 13.19 334.56 13.20 334.52 13.20C334.47 13.20 334.45 13.22 334.43 13.22C334.22 13.23 334.11 13.31 334.11 13.50L334.11 13.82L335.43 13.82L335.52 13.82L335.79 13.82L336.07 13.82L336.53 13.82L336.53 13.50C336.53 13.33 336.45 13.23 336.27 13.22ZM331.46 5.22C331.49 5.14 331.53 5.04 331.56 4.94C331.59 4.84 331.63 4.75 331.66 4.63C331.69 4.75 331.73 4.84 331.76 4.94C331.79 5.04 331.83 5.12 331.86 5.21L333.82 10.04L329.52 10.04ZM352.28 3.92L352.09 3.92L344.79 3.92L344.58 3.92L344.48 3.92L344.48 5.96L344.83 5.96C345.03 5.96 345.11 5.85 345.13 5.63C345.13 5.53 345.16 5.17 345.18 4.52L348.08 4.52L348.08 13.26C347.91 13.26 347.77 13.27 347.63 13.27C347.49 13.27 347.38 13.29 347.31 13.29L347.19 13.29C347.00 13.30 346.91 13.38 346.91 13.54L346.91 13.82L348.08 13.82L348.80 13.82L349.99 13.82L349.99 13.54C349.99 13.38 349.89 13.30 349.71 13.29L349.57 13.29C349.50 13.29 349.40 13.27 349.26 13.27C349.12 13.27 348.96 13.26 348.80 13.26L348.80 4.52L351.68 4.52C351.72 5.24 351.74 5.60 351.74 5.63C351.75 5.85 351.85 5.96 352.04 5.96L352.38 5.96L352.38 3.92ZM363.30 4.44C363.48 4.42 363.57 4.34 363.57 4.19L363.57 3.91L362.39 3.91L361.68 3.91L360.49 3.91L360.49 4.19C360.49 4.34 360.58 4.42 360.77 4.44L360.91 4.44C360.98 4.44 361.07 4.45 361.21 4.45C361.35 4.45 361.51 4.47 361.68 4.47L361.68 13.26C361.51 13.26 361.35 13.27 361.21 13.27C361.07 13.27 360.98 13.29 360.91 13.29L360.77 13.29C360.58 13.30 360.49 13.38 360.49 13.54L360.49 13.82L361.68 13.82L362.39 13.82L363.57 13.82L363.57 13.54C363.57 13.38 363.48 13.30 363.30 13.29L363.16 13.29C363.09 13.29 362.99 13.27 362.85 13.27C362.71 13.27 362.56 13.26 362.39 13.26L362.39 4.47C362.56 4.47 362.71 4.45 362.85 4.45C362.99 4.45 363.09 4.44 363.16 4.44ZM381.18 8.86C381.18 8.11 381.05 7.41 380.83 6.79C380.60 6.17 380.28 5.64 379.86 5.19C379.44 4.75 378.95 4.40 378.38 4.16C377.80 3.92 377.15 3.79 376.45 3.79C375.75 3.79 375.12 3.92 374.54 4.16C373.97 4.40 373.46 4.75 373.04 5.19C372.62 5.64 372.30 6.17 372.08 6.79C371.85 7.41 371.73 8.11 371.73 8.86C371.73 9.63 371.85 10.33 372.08 10.95C372.30 11.56 372.62 12.10 373.04 12.54C373.46 12.99 373.97 13.33 374.54 13.57C375.12 13.80 375.75 13.93 376.45 13.93C377.15 13.93 377.80 13.80 378.38 13.57C378.95 13.33 379.44 12.99 379.86 12.54C380.28 12.10 380.60 11.56 380.83 10.95C381.05 10.33 381.18 9.63 381.18 8.86ZM380.42 8.86C380.42 9.56 380.34 10.18 380.14 10.72C379.95 11.27 379.68 11.75 379.33 12.12C378.98 12.50 378.56 12.81 378.07 13.01C377.58 13.20 377.05 13.30 376.45 13.30C375.86 13.30 375.33 13.20 374.84 13.01C374.35 12.81 373.93 12.50 373.58 12.12C373.23 11.75 372.95 11.27 372.75 10.72C372.55 10.18 372.47 9.56 372.47 8.86C372.47 8.18 372.55 7.55 372.75 7.00C372.95 6.45 373.23 5.98 373.58 5.60C373.93 5.22 374.35 4.91 374.84 4.72C375.33 4.52 375.86 4.41 376.45 4.41C377.05 4.41 377.58 4.52 378.07 4.72C378.56 4.91 378.98 5.22 379.33 5.60C379.68 5.98 379.95 6.45 380.14 7.00C380.34 7.55 380.42 8.18 380.42 8.86ZM398.01 3.92L397.38 3.92L396.16 3.92L396.16 4.19C396.16 4.34 396.26 4.42 396.44 4.44L396.58 4.44C396.65 4.44 396.76 4.45 396.90 4.45C397.04 4.45 397.21 4.47 397.38 4.47L397.38 12.22C397.38 12.35 397.38 12.49 397.39 12.63L390.98 4.05C390.94 3.99 390.91 3.95 390.87 3.93C390.82 3.92 390.78 3.91 390.71 3.91L390.36 3.91L389.17 3.91L389.17 4.19C389.17 4.34 389.27 4.42 389.45 4.44L389.59 4.44C389.66 4.44 389.76 4.45 389.90 4.45C390.04 4.45 390.19 4.47 390.36 4.47L390.36 13.26C390.19 13.26 390.04 13.27 389.90 13.27C389.76 13.27 389.66 13.29 389.59 13.29L389.45 13.29C389.27 13.30 389.17 13.38 389.17 13.54L389.17 13.82L390.36 13.82L390.98 13.82L392.20 13.82L392.20 13.54C392.20 13.38 392.10 13.30 391.92 13.29L391.78 13.29C391.71 13.29 391.58 13.27 391.44 13.27C391.30 13.27 391.15 13.26 390.98 13.26L390.98 5.49C390.98 5.36 390.98 5.22 390.96 5.08L397.40 13.68C397.47 13.78 397.54 13.82 397.66 13.82L398.01 13.82L398.01 4.47C398.17 4.47 398.31 4.45 398.45 4.45C398.59 4.45 398.71 4.44 398.78 4.44L398.90 4.44C399.08 4.42 399.18 4.34 399.18 4.19L399.18 3.92ZM412.94 9.91C412.80 9.65 412.61 9.39 412.37 9.21C412.13 9.03 411.88 8.88 411.59 8.75C411.29 8.62 410.97 8.51 410.66 8.41C410.35 8.32 410.05 8.20 409.75 8.11C409.46 7.99 409.19 7.87 408.95 7.71C408.72 7.56 408.53 7.38 408.39 7.15C408.25 6.93 408.17 6.65 408.17 6.31C408.17 6.06 408.23 5.82 408.32 5.59C408.42 5.35 408.56 5.15 408.74 4.97C408.93 4.79 409.15 4.65 409.43 4.55C409.71 4.45 410.02 4.40 410.38 4.40C411.05 4.40 411.67 4.51 412.23 4.75C412.27 5.54 412.30 5.99 412.30 6.06C412.31 6.29 412.40 6.41 412.59 6.41L412.93 6.41L412.93 4.38C412.05 4.00 411.21 3.81 410.38 3.81C409.92 3.81 409.51 3.88 409.15 4.02C408.79 4.16 408.49 4.34 408.25 4.58C408.02 4.82 407.82 5.08 407.69 5.39C407.57 5.70 407.51 6.02 407.51 6.36C407.51 6.78 407.58 7.14 407.72 7.42C407.86 7.70 408.06 7.92 408.30 8.12C408.53 8.32 408.79 8.46 409.08 8.58C409.37 8.71 409.70 8.82 410.00 8.92C410.31 9.02 410.61 9.11 410.91 9.21C411.21 9.31 411.47 9.45 411.71 9.60C411.95 9.76 412.13 9.94 412.27 10.16C412.41 10.39 412.48 10.68 412.48 11.03C412.48 11.35 412.43 11.66 412.31 11.94C412.20 12.22 412.05 12.46 411.84 12.67C411.63 12.88 411.36 13.05 411.05 13.16C410.75 13.29 410.40 13.33 410.00 13.33C409.22 13.33 408.56 13.20 408.03 12.95C408.02 12.75 408.02 12.54 408.00 12.32C407.99 12.10 407.99 11.91 407.97 11.76C407.96 11.61 407.96 11.52 407.96 11.51C407.95 11.28 407.85 11.17 407.65 11.17L407.32 11.17L407.32 13.02L407.32 13.20L407.32 13.38C408.17 13.75 409.05 13.93 409.98 13.93C410.48 13.93 410.93 13.85 411.32 13.69C411.71 13.54 412.05 13.31 412.31 13.05C412.58 12.78 412.80 12.46 412.94 12.10C413.08 11.73 413.15 11.34 413.15 10.92C413.15 10.51 413.08 10.18 412.94 9.91Z"></path></g></svg>