<svg data-v-423bf9ae="" xmlns="http://www.w3.org/2000/svg" viewBox="0 0 530.9535756453798 60" class="font"><!----><!----><!----><g data-v-423bf9ae="" id="8f99bf65-bd5c-4287-95ba-059337f5a267" fill="black" transform="matrix(4.8899757477580295,0,0,4.8899757477580295,-1.026890464816347,-22.200489231446525)"><path d="M2.97 13.78L5.45 13.78L8.19 4.54L6.09 4.54L5.01 8.86C4.76 9.87 4.55 10.81 4.27 11.83L4.21 11.83C3.95 10.81 3.77 9.87 3.50 8.86L2.39 4.54L0.21 4.54ZM11.54 13.94C12.43 13.94 13.30 13.51 14 12.96L14.06 12.96L14.21 13.78L15.89 13.78L15.89 9.66C15.89 7.50 14.70 6.45 12.75 6.45C11.56 6.45 10.46 6.87 9.79 7.43L10.51 8.78C11.02 8.37 11.68 8.11 12.35 8.11C13.29 8.11 13.76 8.51 13.83 9.18C10.54 9.39 9.25 10.21 9.25 11.80C9.25 13.01 10.14 13.94 11.54 13.94ZM12.19 12.35C11.61 12.35 11.23 12.12 11.23 11.65C11.23 11.00 11.79 10.54 13.83 10.42L13.83 11.65C13.34 12.05 12.81 12.35 12.19 12.35ZM18.42 13.78L20.48 13.78L20.48 10.02C21.07 8.74 21.97 8.26 22.82 8.26C23.34 8.26 23.62 8.34 24.05 8.47L24.47 6.75C24.07 6.57 23.74 6.45 23.13 6.45C22.02 6.45 21 7.03 20.31 8.20L20.27 8.20L20.10 6.64L18.42 6.64ZM26.21 13.78L28.27 13.78L28.27 9.00C28.76 8.48 29.12 8.20 29.68 8.20C30.44 8.20 30.70 8.65 30.70 9.63L30.70 13.78L32.76 13.78L32.76 9.37C32.76 7.56 32.06 6.45 30.49 6.45C29.46 6.45 28.70 6.99 28.10 7.60L28.04 7.60L27.89 6.64L26.21 6.64ZM36.74 13.94C37.63 13.94 38.50 13.51 39.20 12.96L39.26 12.96L39.41 13.78L41.09 13.78L41.09 9.66C41.09 7.50 39.90 6.45 37.95 6.45C36.76 6.45 35.66 6.87 34.99 7.43L35.71 8.78C36.22 8.37 36.88 8.11 37.55 8.11C38.49 8.11 38.96 8.51 39.03 9.18C35.74 9.39 34.45 10.21 34.45 11.80C34.45 13.01 35.34 13.94 36.74 13.94ZM37.39 12.35C36.81 12.35 36.43 12.12 36.43 11.65C36.43 11.00 36.99 10.54 39.03 10.42L39.03 11.65C38.54 12.05 38.01 12.35 37.39 12.35ZM54.22 13.94C56.74 13.94 57.62 12.45 57.62 10.64L57.62 4.54L52.00 4.54L52.00 6.26L55.57 6.26L55.57 10.47C55.57 11.75 55.09 12.17 54.15 12.17C53.55 12.17 52.95 11.82 52.42 11.14L51.23 12.42C52.02 13.55 53.21 13.94 54.22 13.94ZM63 13.94C64.83 13.94 66.54 12.59 66.54 10.21C66.54 7.83 64.83 6.45 63 6.45C61.17 6.45 59.46 7.83 59.46 10.21C59.46 12.59 61.17 13.94 63 13.94ZM63 12.28C62.05 12.28 61.57 11.47 61.57 10.21C61.57 8.95 62.05 8.12 63 8.12C63.95 8.12 64.43 8.95 64.43 10.21C64.43 11.47 63.95 12.28 63 12.28ZM70.32 13.94C71.32 13.94 72.04 13.47 72.66 12.74L72.72 12.74L72.87 13.78L74.55 13.78L74.55 6.64L72.49 6.64L72.49 11.34C72.02 12.00 71.65 12.19 71.13 12.19C70.36 12.19 70.13 11.76 70.13 10.78L70.13 6.64L68.07 6.64L68.07 11.05C68.07 12.85 68.74 13.94 70.32 13.94ZM77.22 13.78L79.28 13.78L79.28 10.02C79.87 8.74 80.77 8.26 81.62 8.26C82.14 8.26 82.42 8.34 82.85 8.47L83.27 6.75C82.87 6.57 82.54 6.45 81.93 6.45C80.82 6.45 79.80 7.03 79.11 8.20L79.07 8.20L78.90 6.64L77.22 6.64ZM85.01 13.78L87.07 13.78L87.07 9.00C87.56 8.48 87.92 8.20 88.48 8.20C89.24 8.20 89.50 8.65 89.50 9.63L89.50 13.78L91.56 13.78L91.56 9.37C91.56 7.56 90.86 6.45 89.29 6.45C88.26 6.45 87.50 6.99 86.90 7.60L86.84 7.60L86.69 6.64L85.01 6.64ZM97.02 13.94C97.94 13.94 98.98 13.62 99.76 13.12L99.09 11.87C98.48 12.21 97.93 12.38 97.30 12.38C96.28 12.38 95.42 11.90 95.28 10.81L99.96 10.81C99.99 10.63 100.04 10.25 100.04 9.88C100.04 7.94 98.92 6.45 96.78 6.45C94.93 6.45 93.17 7.87 93.17 10.21C93.17 12.57 94.86 13.94 97.02 13.94ZM95.26 9.44C95.44 8.48 96.08 8.04 96.82 8.04C97.76 8.04 98.18 8.60 98.18 9.44ZM102.80 16.81C104.55 16.81 105.38 15.89 106.04 14.11L108.79 6.64L106.85 6.64L105.83 9.76C105.60 10.46 105.38 11.20 105.20 11.90L105.14 11.90C104.92 11.16 104.69 10.43 104.44 9.76L103.28 6.64L101.23 6.64L104.24 13.61L104.02 14.18C103.88 14.53 103.45 15.19 102.65 15.19C102.47 15.19 102.28 15.16 102.10 15.11L101.74 16.67C102.03 16.76 102.40 16.81 102.80 16.81Z"></path></g><!----><!----></svg>